HIERARCHY
ROOT Hips
{
	OFFSET 0.000000 0.000000 0.000000
	CHANNELS 6 Xposition Yposition Zposition Zrotation Yrotation Xrotation 
	JOINT LHipJoint
	{
		OFFSET 0.000000 0.000000 0.000000
		CHANNELS 3 Zrotation Yrotation Xrotation
		JOINT LeftUpLeg
		{
			OFFSET 1.363060 -1.794630 0.839290
			CHANNELS 3 Zrotation Yrotation Xrotation
			JOINT LeftLeg
			{
				OFFSET 2.448110 -6.726130 0.000000
				CHANNELS 3 Zrotation Yrotation Xrotation
				JOINT LeftFoot
				{
					OFFSET 2.562200 -7.039590 0.000000
					CHANNELS 3 Zrotation Yrotation Xrotation
					JOINT LeftToeBase
					{
						OFFSET 0.157640 -0.433110 2.322550
						CHANNELS 3 Zrotation Yrotation Xrotation
						End Site
						{
							OFFSET 0.000000 0.000000 0.000000
						}
					}
				}
			}
		}
	}
	JOINT RHipJoint
	{
		OFFSET 0.000000 0.000000 0.000000
		CHANNELS 3 Zrotation Yrotation Xrotation
		JOINT RightUpLeg
		{
			OFFSET -1.305520 -1.794630 0.839290
			CHANNELS 3 Zrotation Yrotation Xrotation
			JOINT RightLeg
			{
				OFFSET -2.542530 -6.985550 0.000000
				CHANNELS 3 Zrotation Yrotation Xrotation
				JOINT RightFoot
				{
					OFFSET -2.568260 -7.056230 0.000000
					CHANNELS 3 Zrotation Yrotation Xrotation
					JOINT RightToeBase
					{
						OFFSET -0.164730 -0.452590 2.363150
						CHANNELS 3 Zrotation Yrotation Xrotation
						End Site
						{
							OFFSET 0.000000 0.000000 0.000000
						}
					}
				}
			}
		}
	}
	JOINT LowerBack
	{
		OFFSET 0.000000 0.000000 0.000000
		CHANNELS 3 Zrotation Yrotation Xrotation
		JOINT Spine
		{
			OFFSET 0.028270 2.035590 -0.193380
			CHANNELS 3 Zrotation Yrotation Xrotation
			JOINT Spine1
			{
				OFFSET 0.056720 2.048850 -0.042750
				CHANNELS 3 Zrotation Yrotation Xrotation
				JOINT Neck
				{
					OFFSET 0.000000 0.000000 0.000000
					CHANNELS 3 Zrotation Yrotation Xrotation
					JOINT Neck1
					{
						OFFSET -0.054170 1.746240 0.172020
						CHANNELS 3 Zrotation Yrotation Xrotation
						JOINT Head
						{
							OFFSET 0.104070 1.761360 -0.123970
							CHANNELS 3 Zrotation Yrotation Xrotation
							End Site
							{
								OFFSET 0.000000 0.000000 0.000000
							}
						}
					}
				}
				JOINT LeftShoulder
				{
					OFFSET 0.000000 0.000000 0.000000
					CHANNELS 3 Zrotation Yrotation Xrotation
					JOINT LeftArm
					{
						OFFSET 3.362410 1.200890 -0.311210
						CHANNELS 3 Zrotation Yrotation Xrotation
						JOINT LeftForeArm
						{
							OFFSET 4.983000 -0.000000 -0.000000
							CHANNELS 3 Zrotation Yrotation Xrotation
							JOINT LeftHand
							{
								OFFSET 3.483560 -0.000000 -0.000000
								CHANNELS 3 Zrotation Yrotation Xrotation
								JOINT LeftFingerBase
								{
									OFFSET 0.000000 0.000000 0.000000
									CHANNELS 3 Zrotation Yrotation Xrotation
									JOINT LeftHandIndex1
									{
										OFFSET 0.715260 -0.000000 -0.000000
										CHANNELS 3 Zrotation Yrotation Xrotation
										End Site
										{
											OFFSET 0.000000 0.000000 0.000000
										}
									}
								}
								JOINT LThumb
								{
									OFFSET 0.000000 0.000000 0.000000
									CHANNELS 3 Zrotation Yrotation Xrotation
									End Site
									{
										OFFSET 0.000000 0.000000 0.000000
									}
								}
							}
						}
					}
				}
				JOINT RightShoulder
				{
					OFFSET 0.000000 0.000000 0.000000
					CHANNELS 3 Zrotation Yrotation Xrotation
					JOINT RightArm
					{
						OFFSET -3.136600 1.374050 -0.404650
						CHANNELS 3 Zrotation Yrotation Xrotation
						JOINT RightForeArm
						{
							OFFSET -5.241900 -0.000000 -0.000000
							CHANNELS 3 Zrotation Yrotation Xrotation
							JOINT RightHand
							{
								OFFSET -3.444170 -0.000000 -0.000000
								CHANNELS 3 Zrotation Yrotation Xrotation
								JOINT RightFingerBase
								{
									OFFSET 0.000000 0.000000 0.000000
									CHANNELS 3 Zrotation Yrotation Xrotation
									JOINT RightHandIndex1
									{
										OFFSET -0.622530 -0.000000 -0.000000
										CHANNELS 3 Zrotation Yrotation Xrotation
										End Site
										{
											OFFSET 0.000000 0.000000 0.000000
										}
									}
								}
								JOINT RThumb
								{
									OFFSET 0.000000 0.000000 0.000000
									CHANNELS 3 Zrotation Yrotation Xrotation
									End Site
									{
										OFFSET 0.000000 0.000000 0.000000
									}
								}
							}
						}
					}
				}
			}
		}
	}
}
MOTION
Frames: 7
Frame Time: 0.008333
20.406348 18.837993 -19.008585 -0.444718 3.146040 4.920023 -18.668161 7.907499 3.689117 3.919388 4.353067 -13.837819 -18.153437 -17.308355 56.680283 -12.439061 38.876675 -10.178293 -3.015477 -0.111950 -20.104725 14.482288 -2.598305 0.281026 6.830026 -1.467173 -32.543030 4.393535 9.046118 37.452367 5.431011 -27.174900 -7.208973 -0.131734 -0.443862 -0.659889 5.525731 -3.814234 8.254827 1.109305 -3.972808 -3.704651 -2.209888 -4.199862 0.103005 -5.873122 -3.374083 -6.188362 -4.850781 -0.818227 39.616910 -12.522323 2.109552 20.876168 -11.744686 -7.530786 1.319708 -76.094183 -17.451008 51.647875 6.190331 -7.746717 -4.244804 1.286258 -2.231083 -3.137568 -0.166914 0.234266 0.000000 0.000000 0.000000 0.000000 0.000000 0.000000 0.000000 15.385440 6.355469 5.213573 67.236835 6.533971 40.645405 -0.539733 0.637047 -0.368860 2.730002 0.017215 -0.444344 -1.102426 -0.070072 0.000000 0.000000 0.000000 0.000000 0.000000 0.000000 0.000000
20.370411 18.855690 -18.883766 -0.484235 3.446928 4.942664 -18.613933 7.704296 3.519096 3.772797 4.415482 -14.814517 -20.894958 -18.079435 60.311251 -10.514547 42.621074 -8.693993 -2.867132 0.481134 -18.953573 14.607113 -2.705086 0.384613 6.783507 -1.227770 -31.941721 0.830598 4.374167 34.495162 5.587403 -22.123699 -5.296740 0.013642 0.053644 -0.569968 5.583845 -3.737766 8.275913 1.105717 -3.904267 -3.711766 -2.266930 -4.132111 0.080587 -5.867059 -3.352979 -6.175100 -4.689973 -0.828532 39.466135 -12.467819 2.177758 21.061238 -11.703844 -7.478876 1.331729 -76.413839 -17.421354 52.099706 6.231239 -7.679405 -4.264935 1.209322 -2.305073 -3.152725 -0.135046 0.269493 0.000000 0.000000 0.000000 0.000000 0.000000 0.000000 0.000000 15.279462 6.353453 5.176512 67.488610 6.905551 41.226792 -0.557371 0.644176 -0.330766 2.534795 0.115578 -0.400517 -1.023670 -0.097594 0.000000 0.000000 0.000000 0.000000 0.000000 0.000000 0.000000
20.343649 18.897211 -18.754082 -0.125050 3.516164 4.421933 -18.664113 7.648295 3.429557 3.452580 3.700293 -14.740824 -24.055059 -18.451584 63.485161 -7.571923 47.133190 -6.787944 -2.587218 1.845424 -16.941173 14.846688 -2.989717 0.534805 5.959613 -0.933600 -30.634348 0.175074 3.054292 33.354484 5.813272 -21.416020 -5.103617 0.139494 0.477929 -0.344514 5.303116 -3.589895 8.738975 1.072536 -3.738125 -3.678906 -2.403782 -3.980507 0.133115 -5.854125 -3.340529 -6.208606 -4.652034 -1.029740 39.461520 -12.524542 2.003530 20.930274 -11.741428 -7.426976 1.438392 -76.733881 -17.479404 52.529491 6.228271 -7.576477 -4.189473 0.914710 -2.134247 -3.062427 -0.013581 0.218130 0.000000 0.000000 0.000000 0.000000 0.000000 0.000000 0.000000 15.180083 6.440504 5.074812 67.649527 7.062695 41.196108 -0.569783 0.847744 0.059152 2.585915 0.218335 -0.007895 -1.040422 -0.131921 0.000000 0.000000 0.000000 0.000000 0.000000 0.000000 0.000000
20.312964 18.914512 -18.632148 -0.159930 3.813524 4.413554 -18.591230 7.364536 3.305613 3.285052 3.539419 -15.605658 -27.143873 -18.716973 67.315043 -6.526920 50.525128 -6.461991 -1.895822 1.668127 -12.746315 14.936652 -3.043551 0.701702 5.601781 -0.290070 -29.798290 -1.218383 0.450709 31.834893 6.114136 -19.228717 -4.331723 0.109600 0.381812 -0.565816 5.366604 -3.442788 8.723596 1.062705 -3.597494 -3.676452 -2.480904 -3.828253 0.104352 -5.810312 -3.353278 -6.032373 -4.500170 -1.170420 39.436814 -12.607961 1.938559 20.628950 -11.745877 -7.721075 1.547766 -76.928495 -17.434353 52.534706 6.168264 -7.572982 -4.020243 0.932457 -2.158309 -2.908967 -0.022867 0.228532 0.000000 0.000000 0.000000 0.000000 0.000000 0.000000 0.000000 15.046866 6.887521 4.847747 67.777342 6.857524 40.464973 -0.499272 1.167588 0.417945 2.432159 0.126654 0.343025 -0.980495 -0.073017 0.000000 0.000000 0.000000 0.000000 0.000000 0.000000 0.000000
20.283529 18.930786 -18.510660 -0.176994 4.117676 4.430859 -18.535585 7.072224 3.165525 3.108044 3.143458 -16.409701 -29.122548 -18.190346 70.156005 -4.349708 53.099595 -4.896182 -1.257538 1.877541 -8.914554 15.007414 -3.058980 0.889854 5.097009 0.627537 -28.927954 -0.921449 -0.014570 31.362348 6.115370 -19.783346 -4.790101 -0.189080 -0.639393 -0.518326 5.451564 -3.337270 8.727975 1.056671 -3.502946 -3.682110 -2.557777 -3.733653 0.117013 -5.799646 -3.355716 -5.983690 -4.470581 -1.377325 39.194648 -12.466183 1.710155 20.712120 -11.729986 -7.806354 1.601553 -77.181040 -17.435945 52.583603 6.128425 -7.537131 -3.861791 0.699537 -2.083303 -2.746882 0.070046 0.209675 0.000000 0.000000 0.000000 0.000000 0.000000 0.000000 0.000000 14.938905 7.072158 4.791433 67.900823 7.074441 40.572999 -0.582375 1.463156 0.800814 2.775582 0.366498 0.740541 -1.109915 -0.166441 0.000000 0.000000 0.000000 0.000000 0.000000 0.000000 0.000000
20.253468 18.945604 -18.392918 -0.154924 4.350659 4.530470 -18.474213 6.759769 3.013039 2.945053 2.637975 -17.285886 -29.831386 -17.071672 71.923651 -2.583378 54.333246 -3.155086 -0.803780 1.574506 -6.056171 15.059352 -3.059923 1.036648 4.814872 1.186432 -28.402305 -1.517106 -1.546313 30.591361 6.020709 -18.886272 -4.668548 -0.279251 -0.946808 -0.490521 5.453625 -3.255232 8.710917 1.051478 -3.425162 -3.688078 -2.599490 -3.661607 0.187253 -5.818949 -3.306584 -6.084867 -4.371060 -1.463955 39.049380 -12.401571 1.618229 20.653810 -11.658326 -7.688339 1.581460 -77.469996 -17.574335 52.619554 6.149255 -7.527673 -3.816227 0.831517 -2.178725 -2.709867 0.017544 0.243448 0.000000 0.000000 0.000000 0.000000 0.000000 0.000000 0.000000 14.848095 6.989298 4.970477 67.891932 7.985559 40.828331 -0.538312 1.700245 0.901620 2.297926 0.333654 0.833690 -0.923921 -0.116927 0.000000 0.000000 0.000000 0.000000 0.000000 0.000000 0.000000
20.230310 18.963470 -18.276911 -0.204609 4.833049 4.291236 -18.529814 6.719165 2.756875 2.683643 2.575448 -17.942479 -28.541649 -16.214192 72.859604 -0.824658 53.752919 -0.642571 -0.541145 1.357400 -4.342740 15.178075 -3.260705 1.204685 4.517771 1.508277 -27.584286 -2.625576 -4.153577 29.270555 5.838961 -16.793137 -3.812308 -0.342496 -1.162599 -0.491371 5.606559 -3.150759 8.921279 1.042700 -3.323125 -3.672560 -2.708250 -3.552226 0.171355 -5.766331 -3.341919 -5.884215 -4.156629 -1.708762 38.928695 -12.627442 1.572651 20.619870 -11.758989 -8.055834 1.760052 -77.596933 -17.607320 52.550342 6.131235 -7.442768 -3.570267 0.816345 -2.067683 -2.476482 0.029588 0.208175 0.000000 0.000000 0.000000 0.000000 0.000000 0.000000 0.000000 14.777628 7.488264 4.662517 67.826819 7.752361 40.280841 -0.674923 2.171270 0.886507 1.416547 0.337540 0.823719 -0.591823 -0.049702 0.000000 0.000000 0.000000 0.000000 0.000000 0.000000 0.000000
